<?xml version="1.0" encoding="UTF-8"?>
<svg xmlns="http://www.w3.org/2000/svg" viewBox="0 0 1080 1080">
  <defs>
    <style>
      .cls-1 {
        fill: #00bfa6;
      }

      .cls-2 {
        isolation: isolate;
      }

      .cls-3 {
        font-family: Panton-Black, 'Panton Black';
        font-size: 151.76px;
        font-weight: 800;
      }

      .cls-3, .cls-4 {
        fill: #fff5ee;
      }

      .cls-5 {
        mix-blend-mode: multiply;
        opacity: .04;
      }
    </style>
  </defs>
  <g class="cls-2">
    <g id="Layer_3" data-name="Layer 3">
      <g>
        <rect class="cls-1" width="1080" height="1080"/>
        <g class="cls-5">
          <path class="cls-1" d="m744.27,378.84c-2.24-42.77,32.37-77.7,26.87-120.04-7.93-60.91-83.22-74.46-127.08-43.48-21.85,15.43-35.45,39.08-44.03,64.02-12.16,35.33-7.55,75.24-23.17,109.33-10.17,22.18-27.55,39.76-47.54,58.83l-1.64,1.56c-18.31,17.45-37.25,35.5-49.22,58.35-15.35,29.29-17.45,83.64,11.73,105.62,30.04,22.63,52.27-2.68,74.78-21.73,18.28-15.47,39.51-20.1,62.03-26.22,32.93-8.96,71.35-12.93,97.25-36.63,21.37-19.56,31.49-48.26,32.67-76.72,1.05-25.2-11.33-48.08-12.63-72.9Z"/>
          <path class="cls-1" d="m765.79,418.46c1.87,6.52,5.1,12.81,10.19,17.27,20.22,17.71,44.27-3.72,56.28-20.07,8.6-11.7,15.29-24.79,24.63-35.96,8.85-10.59,22.82-18.18,33.87-26.72,19.98-15.46,39.29-31.78,57.86-48.91,16.89-15.59,28.68-36.12,28.35-59.93-.38-27.49-18.67-52.69-44.62-61.7-17.15-5.96-33.16-4.38-47.35,1.97-22.08,9.88-32.23,26.18-44.36,45.99-15.06,24.58-28.85,50.86-46.59,73.6-8.59,11.01-17.47,22.39-24.18,35.08-12.45,23.57-11.29,54.21-4.08,79.39Z"/>
          <path class="cls-1" d="m665.35,78.2c-8.77,13.69-.7,24.92,10.38,32.71,15.26,10.73,9.29,26.13,17.2,40.04,10.5,18.47,34.98,12.15,50.97,21.52,13.88,8.13,23.46,21.92,29.82,36.41,3.35,7.63,5.86,15.63,7.67,23.76,1.58,7.14.83,14.4,7.62,18.68,20.48,12.9,37.83-25.11,41.91-39.8,6.88-24.72,3.01-51.99-8.55-74.7-19.34-38-61.17-61-102.25-67.23-.85-.13-1.7-.25-2.56-.37-6.55-.88-13.23-1.42-19.84-1.67-8.04-.3-16.99-.38-24.1,3.2-3.22,1.62-6.06,4-8.27,7.44Z"/>
          <path class="cls-1" d="m969.01,310.68c-23.77,5.61-37.29,29.94-49.97,48.64-9.61,14.17-20.23,27.83-33.17,39.13-6.5,5.68-13.64,11.11-21.36,15.04-7.46,3.8-15.77,5.99-21.55,12.45-6.17,6.9-8.92,19.49-1.98,26.81,10.68,11.27,36.59,5.98,50.33,5.03,21.96-1.51,44.23-5.16,64.33-14.5,23.32-10.84,44.23-19.72,57.45-43.64,4.11-7.43,7.66-17.1,9.65-27.23,2.78-14.12,2.52-29.15-3.51-40.29-8.78-16.23-32.74-25.56-50.21-21.44Z"/>
          <path class="cls-1" d="m948.5,503.06c-21.05-10.68-42.68-10.46-65.36-13.16-16.94-2.01-32.68-2.14-48.73-8.53-9.24-3.68-17.89-8.77-25.42-15.29-6.04-5.23-14.82-11.19-21.37-2.12-5.03,6.96-2.65,15.86-.43,21.94,19.73,54.03,78.61,98.66,137.25,96.56,7.33-.26,14.61-1.37,21.7-3.49,9.9-2.96,20.58-7.08,26.55-15.72,6.32-9.16,10.26-20.11,6.43-31.15-4.75-13.69-18.29-22.78-30.62-29.04Z"/>
          <path class="cls-1" d="m989.48,613.01c-5.94,6.22-12.09,11.82-20.59,14.03-8.71,2.27-17.43-2.76-26.01-4.69-23.84-5.36-46.84-4.76-70.24,1.32-14.57,3.79-30.56,6.53-45.87,4.22-14.71-2.22-26.99-10.29-38.02-19.75-11.54-9.9-24.71-17.87-38.73-23.71-30.31-12.62-63.68-14.78-95.41-6.57-29.64,7.67-56.63,23.23-80.99,41.45-9.68,7.24-19.01,14.95-28.08,22.95-7.76,6.84-17.67,13.36-23.07,22.33-3.81,6.33-5,14.8-.97,20.99,4.16,6.38,12.39,8.59,19.94,9.61,35.73,4.85,66.35-9.53,100-18.42,20.75-5.49,43.88-7.28,64.84-1.89,23.9,6.15,35.68,22.26,42.93,44.93,5.18,16.22,11.63,32.86,28.66,39.6,17.2,6.8,37.5,2.81,53.96-4.23,13.92-5.95,27.08-13.79,38.86-23.3,8.08-6.52,15.81-13.85,21.53-22.58,3.93-6,7.8-12.3,13.62-16.5,13.07-9.43,30.06-.64,32.75,14.46,3.17,17.77,2.38,37.29,11.15,53.61,13.06,24.32,43.69,16.59,54.1-5.29,7.21-15.17,5.57-31.72,10.62-47.43,3.36-10.46,9.97-21.88,20.93-25.37,13.31-4.23,27.09-.36,40.11,2.93,1.49.38,3,.74,4.51,1.08v-141.61c-22.13,3.65-42.37,14.77-58.7,29.99-12.12,11.3-20.42,25.88-31.83,37.82Z"/>
          <path class="cls-1" d="m1058.52,328.7c-9.93,11.86.05,35.12,4.11,47.62,3.76,11.56,7.75,26.15,2.39,37.87-6.39,13.99-24.02,16.25-36.44,21.72-.05.02-.1.04-.15.07-15.42,6.9-23.53,25.97-26.66,41.51-1.7,8.42-2.24,17.01-2.03,25.59.22,8.61-1.46,19.13,2.83,26.96,6.67,12.18,21.52,8.86,29.66.28,11.72-12.34,5.08-31.81,19.89-42.8,8.22-6.1,18.34-7.22,27.87-9.59v-154.47c-7.79.36-16.5-.69-21.48,5.25Z"/>
          <path class="cls-1" d="m1045.89,198.12c-2.18,24.23,10.73,47.06,14.29,70.57,1.3,8.58-4.24,20.21,1.96,27.54,5.44,6.43,12.11,4.78,17.86.76v-136.03c-16.86,1.47-32.44,18.57-34.11,37.17Z"/>
          <path class="cls-1" d="m1005.95,247.53c-13.46,9.83-10.41,35.53,4.33,42.42,17.26,8.07,34.13-11.63,29.74-27.99-3.99-14.89-20.63-24.26-34.07-14.44Z"/>
          <path class="cls-1" d="m609.28,755.63c11.03,7.55,24.1,13.62,34.66,19.46,18.97,10.5,43.97,27.68,66.11,27.68s38.51-19.77,38.49-41.91c-.04-32.54-27.96-58.66-57.79-66.69-16.5-4.44-33.88-4.34-50.71-2.14-13.29,1.74-33.05,3.03-44.01,11.49-13.12,10.13-10.97,28-1.11,39.62,3.92,4.62,8.89,8.72,14.36,12.47Z"/>
          <path class="cls-1" d="m1034.56,703.22c-5.22,4.98-6.56,12.76-6.74,19.97-.44,17.36-2.99,34.65-5.15,51.93-2.18,17.48-3.42,36.29,5.94,52.02,7.12,11.96,19.8,22.93,34.36,23.26,6.64.15,12.28-1.46,17.03-4.3v-119.47c-10.29-15.76-29.56-38.54-45.44-23.41Z"/>
          <path class="cls-1" d="m463.21,392.45c3.31,16.79.17,38.51,19.3,46.63,20.79,8.82,38.93-11.75,50.32-26.28,19.24-24.54,28.24-55.35,25.95-86.39-2.28-30.92-16.27-61.13-38.37-82.87-17.94-17.65-46.92-27.68-69.4-17.33-6.5,2.99-12.45,7.69-17.44,14.4-25.95,34.92.15,72.05,14.71,104.73,6.72,15.08,11.74,30.92,14.92,47.12Z"/>
          <path class="cls-1" d="m562.11,242.88c23.38,11.07,43.77-16.43,32.07-37.51-4.42-7.96-13.06-13.84-22.24-14.33-15.74-.85-24.23,11.56-24.79,24.75-.45,10.79,4.41,22.1,14.95,27.09Z"/>
          <path class="cls-1" d="m851.85,152.42c-.31,5.73-.15,11.58,1.47,16.5,2.27,6.9,11.13,8.92,16.84,4.99,3-2.06,4.86-4.98,7.01-7.82,7.64-10.1,16.5-20.2,22.6-31.26,4.11-7.46,8.93-17.59,4.44-25.68-3.25-5.86-10.68-8.86-17.21-8.96-10.55-.17-19.52,6.79-25.37,15.04-5.35,7.54-7.96,16.45-8.79,25.58-.33,3.57-.78,7.57-.99,11.62Z"/>
          <path class="cls-1" d="m587.58,166.46c2.46,3.76,4.35,7.83,6.93,11.51,2.58,3.68,6.01,7.04,10.41,8.44,14.33,4.58,15.77-12.14,13.16-21.19,0,0-13.62-46.99-13.69-47.21-2.94-10.15-10.1-20.57-22.34-20.36-19.23.32-29.63,21.87-23.01,37.59,5.69,13.52,20.8,19.37,28.55,31.22Z"/>
          <path class="cls-1" d="m676.55,155.79c-1.4-7.94-7.38-14.9-15.01-17.49-5.46-1.85-11.02-1.46-15.83.61-15.02,6.47-17.32,26.43-6.11,37.68,14.73,14.79,40.44-1.11,36.95-20.81Z"/>
          <path class="cls-1" d="m777.58,521.87c-28.21-10.24-38.99,29.86-20.07,45.64,3.67,3.06,8.31,4.89,13.79,4.74,9.99-.28,18.51-8.98,21.21-18.28,3.57-12.32-2.46-27.59-14.93-32.11Z"/>
          <path class="cls-1" d="m820.32,569.53c-10.8-.41-24.27,4.06-21.28,17.57,1.5,6.79,7.7,9.86,12.37,14.28,8.7,8.24,22.38,12.61,32.85,4.73,9.29-6.99,8.69-19.81,1.37-28.06-6.42-7.24-16.2-8.18-25.3-8.52Z"/>
          <path class="cls-1" d="m323.03,286.42c-26.28,3.99-49.08,24.8-57.68,49.19-7.04,19.98-4.56,42.34,13.33,59.81,11.01,10.75,25.82,14.75,40.39,18.1,16.58,3.81,30.08,9.49,45.27,17.03,26.5,13.17,61.99-6.05,74.79-30.49,11.77-22.46-11.3-54.31-24.86-70.91-21.9-26.82-55.53-48.15-91.23-42.74Z"/>
          <path class="cls-1" d="m53.52,562.34c18.3-8.02,43.27-16.13,50.43,9.72,5.3,19.11-2.29,40.14,9.25,57.86,12.9,19.79,36.29,20.3,55.21,8.99,8.22-4.91,15.49-11.56,20.95-19.44,5.06-7.3,7.89-15.97,14.32-22.48,12.27-12.43,25.82-5.49,39.72-.32,19.02,7.08,36.94,19.64,57.53,21.77,8.99.93,16.45-.64,22.68-4,11.51-6.22,18.85-18.57,24.04-32.63,7.08-19.18,21.06-34.4,39.2-43.77,19.92-10.29,58.86-22.02,61.16-48.46,1.87-21.54-17.98-33.12-37.22-33.34-16.7-.19-30.21,9.26-40.05,21.87-9.06,11.61-22.55,21.56-37.68,22.74-17.5,1.35-34.63-10-48.42-19.48-22.29-15.32-42.29-33.6-70.67-33.87-34.9,0-69.64,1.07-103.86-5.53-31.8-6.13-68.21-10.27-98.51,3.99-4.1,1.93-7.96,4.28-11.57,6.99v108.7c16.48,8.43,36.59,8.12,53.52.7Z"/>
          <path class="cls-1" d="m338.44,804.31c15.38,1.97,32.56-3.72,41.48-16.9,8.05-11.88,8.18-27.74,9.35-41.55,1.53-18.03,7.19-30.65,19.27-44.01,3.94-4.36,8.01-8.86,11.42-13.88,8.88-13.07,11.88-29.36,10.88-44.93-.51-7.9-2.04-15.75-4.55-23.26-2.45-7.34-5.77-14.77-3.66-22.64,3.37-12.59,19.68-39.68-3.19-44.55-11.02-2.35-24.07,9.47-30.31,17.44-8.37,10.7-11.72,24.58-10.99,37.99.65,11.83,8.55,26.78-.82,37.14-7.2,7.96-21.43,5.2-31.17,6.58-23.69,3.34-37.71,24.79-46.02,45.42-14.8,36.78-12.1,100.69,38.3,107.16Z"/>
          <path class="cls-1" d="m161.92,788.46c16.8,2.54,33.1-6.86,42.18-20.67,2.94-4.47,5.81-9.77,7.54-14.82,1.82-5.3,2.43-10.96,4.48-16.27,4.9-12.71,12.87-24.75,24.82-31.49,5.12-2.89,10.09-4.22,13.56-9.31,3.16-4.64,4.4-10.28,7.58-14.92,8.25-12.04,28-7.92,35.32-21.63.09-.18.19-.36.28-.54,2.41-4.9,2.63-10.84-.07-15.65-3.71-6.61-14-7.35-20.54-9.13-16.89-4.59-33.9-11.43-51.26-4.92-16.37,5.67-28.51,20.07-39.78,32.46-13.51,14.85-26.88,29.92-38.39,46.4-6.21,8.89-12.92,19.64-15.67,32.03-4.89,22.08,6.34,44.89,29.96,48.46Z"/>
          <path class="cls-1" d="m427.5,732.09c1.8,10.21,4.54,19.98,1.69,30.35-3.45,12.54-13.76,21.44-24.19,28.42-11.79,7.88-20.9,18.18-25.16,31.97-2.69,8.7-2.94,18.46-.86,27.35,2.04,8.7,3.14,18.04,6.92,26.31,2.68,5.86,7.55,13.07,13.83,15.34,7.32,2.64,17.81.43,24.73-2.4,13.56-5.54,24.32-19.2,30.26-32.24,4.9-10.76,5.85-22.76,6.56-34.41.45-7.51-.41-14.05,3.05-20.91,1.99-3.93,4.75-7.37,7.5-10.77,3.67-4.55,7.33-9.05,9.09-14.64,3.39-10.78.62-22.25-4.57-31.98-3.03-5.84-4.27-13.31,2.58-17.23,4.14-2.37,8.77-1.66,12.33-4.87,3.21-2.9,4.7-7.13,4.67-11.4-.15-22.25-30.64-27.28-47.26-21.63-7.7,2.61-16.62,8.35-19.79,16.05-3.48,8.46-2.94,17.91-1.38,26.71Z"/>
          <path class="cls-1" d="m455.85,671.24c1.41.95,3.03,1.77,4.87,2.43,8.4,3.02,18.11-.08,24-6.58,8.63-9.52,8.41-27.05-2.13-35.15-8.61-6.61-21.75-5.61-28.07,3.25-7.81,10.96-10.44,28.11,1.33,36.05Z"/>
          <path class="cls-1" d="m89.62,403.37s7.23-.75,7.24-.75c11.66-1.21,23.32-2.45,35.02-3.18,9.85-.62,19.79-1.88,29.65-2.01,15.6-.21,31.26,4.1,44.51,12.34,6.48,4.03,8.95,8.25,13.65,13.7,5.68,6.6,15.05,10.83,23.55,7.1,12.67-5.55,10.72-20.33,3.33-29.64-7.75-9.76-20.95-9.89-31.26-15.35-15.53-8.23-14.99-26.56-17.39-41.66-3.07-19.28-15.98-32.51-36.77-28.68-14.62,2.69-25.19,13.83-38.91,17.98-14.98,4.52-31.32,2.75-45.94-2.28-24.73-8.5-49.77-29.98-76.31-37.16v107.02c28.93,7.37,60.61,5.55,89.62,2.57Z"/>
          <path class="cls-1" d="m199.44,198.57c-11.48-2.24-23.66-.26-34.02,5.11-8.73,4.53-20.38,19.69-31.21,10.03-12.3-10.98,11.09-40.82,16.51-51.72,13.55-27.23,18.87-66.81-9.35-87.28-17.18-12.47-44.7-9.18-55.39,10.18-9.11,16.49-.69,35.06,6.12,50.7,6.31,14.5,12.27,28.2,8.62,41.32-3.68,13.19-14.32,21.56-25.42,29.53-8.51,6.12-17.3,12.01-23.44,19.66-21.45,26.74-7.33,66.57,22.2,80.01,16.36,7.45,36.27,6.66,52.29-1.37,12.95-6.49,22.43-17.24,34.87-24.6,18.74-11.08,40.4-11.98,51.2,9.96,2.38,4.83,4.68,11.87,3.38,17.33-1.56,6.55-7.71,10.56-5.84,18.12,3.27,13.17,20.73,9.64,27,.95,8.4-11.66,7.93-29.37,8.6-43.09,1.65-33.82-6.78-77.16-46.11-84.83Z"/>
          <path class="cls-1" d="m186.3,186.68c5.95-1.91,10.71-6.4,14.78-11.14,5.85-6.83,10.74-14.49,17.13-20.81,6.01-5.94,12.89-7.99,20.6-10.68,8.45-2.95,16.65-1.75,25.46-3.26,7.06-1.2,14.04-3.96,19.15-8.98,12.38-12.14,7.87-26.94,10.31-42.15,2.5-15.59,9.51-30.5,20.23-42.12,5.11-5.54,11.43-11.32,11.38-18.86-.03-5.36-3.57-10.27-8.13-13.09-4.56-2.82-10.02-3.82-15.38-4.12-6.62-.38-12.85.28-18.74,1.76-20.99,5.27-37.71,20.96-52.4,37.39-8.37,9.36-18.15,17.24-26.12,26.94-10.75,13.09-19.59,27.75-26.16,43.36-6.56,15.58-13.55,34.8-11.72,51.9,1.13,10.49,8.8,17.33,19.62,13.87Z"/>
          <path class="cls-1" d="m287.05,194.73c6.37-18.99-20.73-40.4-38.03-38.95-14.45,1.21-22.44,16.45-19.76,29.79,4.56,22.74,49.19,34.75,57.79,9.15Z"/>
          <path class="cls-1" d="m310.09,163.99c-10.88,9.03-13.43,22.1-17.05,34.98-5.76,20.51-6.88,43.82,16.65,52.51,8.3,3.07,17.28,3.62,26.11,4.25,13.73.99,29.25,2.45,40.33,11.49,7.74,6.32,11.74,23.34,24.5,20.97,12.83-2.38,9.84-25.55,7.1-34.06-4.12-12.79-13.57-24.05-26.03-29.35-9.59-4.07-20.16-3.25-26.38-13.27-8.85-14.25,5.4-28.87-1.33-43.83-8.18-18.17-31.18-14.27-43.9-3.71Z"/>
          <path class="cls-1" d="m338.29,27.28c.48,16.29,7.52,32.62,14.99,46.84,3.62,6.9,7.32,13.75,9.71,21.3,2.32,7.35,3.61,14.99,3.89,22.69.28,7.71-1.38,14.33-2.58,21.93-1.74,11.08-2.66,22.34-1.73,33.55.8,9.65,2.38,21.94,8.14,30,5.07,7.1,13.55,10.95,22.24,9.04,26.01-5.74,21.45-38.81,22.13-58.1.63-18.18,4.54-35.6,9.04-53.11,4.78-18.62,8.88-39.43,7.36-58.7-1.21-15.36-6.25-29.1-14.26-39.58h-73.71c-3.77,7.31-5.46,15.85-5.22,24.16Z"/>
          <path class="cls-1" d="m309.24,107.96c-1,18.71,21.32,33.21,34.99,16.11,6.55-8.2,6.27-20.58-.64-28.18-7.11-7.81-20.25-8.76-28.13-2.01-3.94,3.37-5.92,8.63-6.22,14.08Z"/>
          <path class="cls-1" d="m444.83,68.14c-1.02,4.83-1.64,9.64-1,14.22,2.59,18.43,24.78,16.4,35.32,6.26,7.87-7.58,10.24-18.81,12.32-29.11,2.58-12.78,2.31-25.91.89-38.81-.64-5.79-1.02-11.8-.03-17.58h-51.01c.82,4.61,2.71,9.27,4.36,13.32,6.87,16.86,2.76,34.65-.85,51.7Z"/>
          <path class="cls-1" d="m746.02,958.16c-5.17-13.21-2.33-30.03-2.33-43.9,1.39-28.92-14.84-52.02-36.76-69.45-10.67-8.48-22.18-14.19-34.32-20.12-14.27-6.96-27.96-16.67-40.93-25.95-10.19-7.28-24.88-15.86-31.95-26.37-6.25-9.3-8.73-19.82-16.53-28.6-8.6-9.68-19.58-18-31.87-22.35-8.44-2.99-30.76-7.59-34.57,3.71-2.94,8.73,5.63,20.53,10.84,26.8,12.59,15.17,29.69,24.88,39.39,42.92,5.52,10.26,5.36,19.12,2.84,30-2.82,12.19-2.74,25.64.21,37.79,4.97,20.46,19.85,27.87,39.51,31.18,19.5,3.28,41.4,10.14,54.43,25.97,7.32,8.89,9.44,20.15,10.25,31.92.93,13.37.18,27.41,3.47,39.39,4.04,14.7,11.51,28.72,22.85,38.92,18.95,17.05,46.8,21.52,71.86,16.87,8.16-1.51,17.24-4.86,20.11-12.65,5.36-14.54-12.05-26.65-19.9-36.65-9.15-11.66-21.17-25.53-26.62-39.45Z"/>
          <path class="cls-1" d="m540.12,875.52c-.25-17.29,8.88-33.32,7.58-50.58-.77-10.14-3.76-20.38-7.44-29.81-5.59-14.3-19.57-40.49-38.49-27.93-16.59,11.02-22.97,43.16-22.47,61.73.56,20.58,7.49,39.24,10.89,59.2,4.54,26.66.83,52.4-15.42,74.08-10.7,14.29-23.84,36.74-11.07,53.9,24.5,32.92,77.33-3.07,91.12-28.27,9.7-17.73-1.59-37.72-6.43-55.12-5.18-18.6-7.99-37.89-8.27-57.2Z"/>
          <path class="cls-1" d="m636.11,1049.87c-.04-.09-.08-.17-.12-.25-5.33-11.57-2.12-22.69,2.41-34.17,8.5-21.53,22.31-44.38,14.28-68.03-6.35-18.69-23.77-31.82-42.9-35.28-11.75-2.23-30.87-5.99-37.48,7.36-5.93,11.97,6.16,26.96,13.45,35.66,8.45,10.08,16.21,22.69,10.41,35.94-4.06,9.28-11.44,16.91-19.37,23.01-6.06,4.66-14.33,8.71-18.08,15.71-4.65,8.67-3.52,21.37.09,30.11,4.25,10.3,12.55,17.88,22.18,23.19h61.93c.47-.97.88-2.02,1.21-3.16,2.94-10.13-3.89-21.22-8-30.09Z"/>
          <path class="cls-1" d="m465.07,889.15c-6.71-3.65-12.63,4.02-16.15,8.69-4.65,6.16-9.51,11.73-15.33,16.87-16.08,14.22-35.71,23.9-56.47,29.14-11.06,2.79-23.07,3.65-33.55,8.31-18.57,8.26-32,26.33-28.13,47.31,1.56,8.46,5.37,17.36,12.58,22.2,7.97,5.36,16.35,7.96,24.79,8.42,13.06.72,26.27-3.68,38.4-10.86,11.99-7.1,23.9-15.53,33.69-25.48,15.2-15.43,26.8-34.27,34.88-54.3,3.71-9.2,18.73-42.99,5.29-50.3Z"/>
          <path class="cls-1" d="m270.34,708.14c-8.29.07-18.31,9.62-24.53,16.07-9.66,10.03-19.01,22.21-21.43,36.28-4.15,24.16,22.68,33.44,40.27,20.64,7.2-5.24,11.48-13.03,13.99-21.41,3.73-12.46,7.09-28.32,2.87-41.02-2.58-7.77-6.61-10.59-11.17-10.56Z"/>
          <path class="cls-1" d="m475.37,200.29c9.04,4.73,18.92,7.89,27.87,12.69,13.18,7.06,35.23,11.57,30.08-11.79-2.28-10.4-7.89-19.45-10.22-29.9-4.19-18.79-4.92-40.89-18-56.23-12.39-14.54-34.93-16.26-50.45-5.78-17.75,11.99-22.35,36.76-14.8,55.95,6.58,16.71,20.17,27.01,35.52,35.06Z"/>
          <path class="cls-1" d="m524.31,109.29c2.71,2.56,6.02,4.27,10.11,4.52,10.53.65,16.97-9.06,19.11-18.19,2.3-9.86,1.12-18.72,6.36-28.07,6.09-10.86,15.74-15.97,25.66-22.6,14.72-9.84,27.92-23.45,28.91-41.83h-90.09c-8.78,13.67-14.15,29.48-15.47,45.72-1.49,18.37,1.15,46.96,15.41,60.45Z"/>
          <path class="cls-1" d="m517.39,1049.35c-10.45-7.73-25.05-6.89-33.49,3.34-6.72,8.14-8.19,19.91-8.13,30.42h53.74c2.37-12.49-.46-25.14-12.12-33.77Z"/>
          <path class="cls-1" d="m638.96,87.37c8.8-8.1,10.48-18.16,21.27-24.81,8.23-5.07,13.77-9.51,10.36-19.41-3.29-9.52-14.68-13.88-24.84-13.39-15.76.77-33.95,12.72-41.29,27.11-9.89,19.39,12.84,50.43,34.5,30.5Z"/>
          <path class="cls-1" d="m447.18,1067.44c4.88-8.3,6.44-16.16,6.82-24.29.32-6.93-.23-14.04-.33-21.79-.09-6.79-1.79-14.27-8.31-17.59-6.61-3.37-12.4-.87-16.07,5.29-8.27,13.89-24.55,20.16-39.48,23.92-15.36,3.87-34.14,4.88-45.2,17.69-6.72,7.79-12.9,22.64-6.51,31.99.11.16.23.31.34.47h95.69c5.14-4.5,9.58-9.79,13.05-15.68Z"/>
          <path class="cls-1" d="m718.7,823.31c.74,6.94,6.63,13.21,9.61,19.37,3.63,7.5,7.77,14.87,13.69,20.83,12.55,12.62,34.52,16.31,41.69-3.72,6.09-17.02-8.18-32.98-21.75-41.14-2.63-1.58-7.78-3.8-13.65-5.52-13.69-4.03-31.24-5.41-29.59,10.19Z"/>
          <path class="cls-1" d="m890.14,820.97c6.36,1.85,13.23,2.12,19.72.33,19.99-5.5,25.52-23.07,24.35-40.41-1.2-17.88.82-39.32-5.64-56.36-2.15-5.67-7.8-9.72-14.42-7.85-6.65,1.87-10.25,8.94-14.63,13.42-5.8,5.93-11,12.35-15.54,19.15-7.63,11.42-18.93,29.69-18.49,43.61.44,13.5,11.41,24.25,24.65,28.11Z"/>
          <path class="cls-1" d="m892.68,923.38c11.04-31.33.36-66.34-18.39-92.47-9.8-13.66-22.23-25.59-36.69-34.23-12.26-7.33-76.57-38.18-78.56-6.23-.78,12.58,14.12,13.54,23.09,15.49,10.49,2.28,21.05,9.13,23.44,20.25,2.66,12.35-8.67,21.64-8.53,33.74.13,11.24,8.15,17.88,15.3,25.36,5.95,6.22,10.99,14.38,7.69,23.26-3.91,10.53-14.45,16.85-16.68,28.11-2.12,10.68,1.35,22.57,9.49,29.94,6.58,5.95,13.77,8.45,21.07,8.45,28.5,0,50.07-27,58.76-51.67Z"/>
          <path class="cls-1" d="m1015.12,912.37c4.8,4.88,12.58,6.35,18.93,3.92,7.66-2.93,9.04-10.75,13.08-16.99,2.68-4.13,6.64-7.36,11.21-9.18,6.14-2.45,12.88-8.16,11.09-15.68-1.98-8.35-12.21-11.58-19.57-12.99-7.7-1.47-15.73-1.36-20.18-.29-12.09,2.91-17.33,15.31-19.92,26.54-1.88,8.18-.79,18.43,5.35,24.67Z"/>
          <path class="cls-1" d="m920.9,881.95c-9.64.73-11.87,9.86-11.86,17.93,0,8.2.38,19.91,5.08,26.89,3.64,5.41,9.84,8.51,16.44,8.08,9.14-.59,14.88-7.88,19.98-14.55,4.7-6.16,10.61-10.78,16.39-15.89,10.87-9.61,14.87-24.84,2.17-35.13-8.62-6.99-20.78-6.17-29.74-.29-7.4,4.87-8.63,12.22-18.47,12.96Z"/>
          <path class="cls-1" d="m1005.96,20.8c14.93-.25,29.57-6.87,39.78-17.68h-81.21c10.6,10.89,24.28,17.97,41.43,17.68Z"/>
          <path class="cls-1" d="m820.36,33.58c11.84,22.08,41.23,22.31,60.13,9.92,14.16-9.29,21.58-24.24,25.48-40.38h-87.9c-2.78,10.08-2.98,20.63,2.29,30.46Z"/>
          <path class="cls-1" d="m676.36,29.17c18.85,14.6,42.67,24.92,60.53,30.21,7.03,2.08,11.62,2.15,18.87-.1,20.68-6.44,39.79-25.01,46.15-45.76,1.04-3.4,1.77-6.88,2.22-10.39h-151.52c5.57,9.76,13.98,18.48,23.75,26.05Z"/>
          <path class="cls-1" d="m349.62,916c6.45-9.98,15.06-25.12,14.6-37.61-.45-12.14-11.18-19.48-22.59-19.49-16.46-.03-25.15,12.91-30.46,26.84-3.63,9.51-6.33,19.64-12.02,28.2-2.89,4.35-6.55,8.16-10.95,11-7.37,4.75-15.01,1.11-22.46-1.08-20.33-5.97-43.3-5.82-63.2,2.28-12.92,5.26-24.67,13.25-30.7,26.1-3.41,7.27-5.19,15.32-5.14,23.35.04,7.95,2.71,15.19,2.08,23.17-.56,7.1-1.85,14.11-2.82,21.16-2.02,14.65-3.99,32.07,9.49,41.69,5.22,3.72,10.78,6.25,16.42,7.68,22.95,5.8,47.19-6.69,55.36-31.12,2.48-7.4,2.03-16.49,3.35-24.24,2.01-11.83,4.02-23.37,13.37-31.55,9.35-8.18,20.65-13.74,31.77-19.08,21.13-10.13,41.22-27.65,53.92-47.3Z"/>
          <path class="cls-1" d="m184.77,28.97c-1.36,6.73.84,14.57,6.52,18.28.32.21.66.41,1,.59,7.2,3.82,16.23.22,22.44-5.06,6.12-5.2,11.24-11.32,17.49-16.39,7.35-5.96,14.64-12.03,21.87-18.12,2.15-1.81,4.37-3.51,6.63-5.15h-57.52c-7.67,7.05-16.3,15.26-18.43,25.85Z"/>
          <path class="cls-1" d="m188.53,901.47c14.07,4.57,30.69,4.99,42-5.9,8.31-8,13.66-19.1,23.6-25.43,4.73-3.01,10.21-4.28,15.54-2,5.63,2.4,7.24,11.08,14.09,10.89,14.3-.39,25.1-18.96,26.55-31.54,1.78-15.45-7.13-30.28-20.44-37.76-16.59-9.32-35.94-4.6-51.59,4.41-11.11,6.4-22.54,12.02-33.96,17.8-6.89,3.48-13.86,6.89-21.17,9.42-7.66,2.65-14.26,2.59-22.14,3.45-31.03,3.38-62.17,6.18-85.92,29.05-22.89,22.04-30.61,64.23-2.62,85.72,16.79,12.89,40.37,12.44,55.72-2.43,9.8-9.49,11.5-21.05,16.25-33.13.61-1.55,1.28-3.08,2.06-4.57,8.48-16.38,24.56-23.65,42.03-17.98Z"/>
          <path class="cls-1" d="m101.05,835.52c.99,0,1.98,0,2.97-.02,11.21-.2,22.39-1.79,33.21-4.72,9.4-2.54,21.58-5.37,27.85-13.44,4.17-5.36,5.21-14.08-.25-19.39-5.94-5.78-16.45,1-23.69,1.27-17.02.64-32.65-9.14-43.47-21.63-10.63-12.28-18.86-26.24-36.87-27.65-19.18-1.51-35.29,12.32-38.81,30.88-1.63,8.61-.76,19.3,4.8,26.31,7.37,9.29,17.49,16.44,28.59,20.53,14.27,5.27,30.46,7.79,45.65,7.85Z"/>
          <path class="cls-1" d="m1063.37,525.86c-1.27,5.91,2.33,13.23,9.25,12.01,2.3-.4,4.39-1.57,6.47-2.64.3-.15.61-.3.91-.45v-34.69c-8.47,5.97-14.41,15.44-16.63,25.76Z"/>
          <path class="cls-1" d="m820.86,104.21c6.17,4.06,14.21,5.93,21.37,3.59,5.83-1.9,10.67-6.93,12.23-12.95,2.61-10.04-5.35-17.86-14.83-23.45-6.7-3.95-14.16-6.78-19.18-8.5-6.78-2.31-13.78-4.98-20.73-6.7-3.86-.96-14.51-2.36-9.96,5.01,9.1,14.74,16.05,33.11,31.09,43Z"/>
          <path class="cls-1" d="m936.73,138.78c15.83,21.92,41.25,31.03,50.61,58.36,3.73,10.89,1.92,25.06,17.04,26.23,15.75,1.22,22.7-16.71,25.6-29.27,2.55-11.08,4.23-22.3,6.13-33.5,1.85-10.93,5.26-22.48,2.5-33.56-2.63-10.55-11.05-17.5-20.54-23.23-8.06-4.87-16.89-8.84-23.6-13.38-14.06-9.52-31.29-19.15-48-10.24-22.14,11.79-23.41,39.66-9.74,58.59Z"/>
          <path class="cls-1" d="m937.73,60.94c18.66,5.2,26.58-15.01,20.15-29.45-3.13-7.03-10.96-13.98-19.18-15.98-5.1-1.24-10.35-.57-14.71,3.19-8.76,7.54-7.54,22.88-1.34,31.54,3.61,5.04,9.08,9.04,15.08,10.71Z"/>
          <path class="cls-1" d="m903.93,91.15c5.07-1.79,8.88-6.72,9.34-12.08.53-6.25-3.69-12.8-9.61-14.89-5.94-2.11-12.95.3-16.63,5.35-7.94,10.88,4.72,25.93,16.91,21.63Z"/>
          <path class="cls-1" d="m1073.6,93.08c-6.2,2.4-10.02,9.04-10.73,15.45-.82,7.34,1.94,12.83,6.15,16.14,3.14,2.47,7.1,3.72,10.99,3.62v-36.52c-1.99.02-4.13.44-6.4,1.31Z"/>
          <path class="cls-1" d="m1058.78,12.21c-17.21,13.08-46.72,17.9-49.39,44.2-1.56,15.39,12.32,29.6,27.27,30.69,24.85,1.8,30.03-24.74,43.33-40.79V3.12h-11.74c-2.73,3.31-5.9,6.37-9.48,9.09Z"/>
          <path class="cls-1" d="m1031.15,1051.95c-10.17-5.92-21.15-13.14-27.56-23.56-8.47-13.77-2.26-26.53-4.55-41.17-2.17-13.9-15.37-24.67-27.73-29.27-11.51-4.29-24.1-6.44-36.39-6.02-9.83.34-25.6,2.09-29.64,12.79-1.97,5.22-1.21,11.14.83,16.33,2.87,7.34,6.79,14.16,10.54,21.08,2.8,5.18,5.52,10.41,7.62,15.96,7.51,19.75,8.86,40.28,12.73,60.83.26,1.39.55,2.79.86,4.2h118.89c-4.47-12.78-13.45-24.09-25.6-31.17Z"/>
          <path class="cls-1" d="m863.55,993.6c-11.09-5.44-30.18-14.33-41.08-4.06-4.55,4.28-6.6,10.84-6.09,17.06,1.6,19.36,20.85,29.21,29.09,45.12,5.53,10.67,4.48,21.28.65,31.39h63.95c-1.63-35.64-12.21-72.67-46.52-89.52Z"/>
          <path class="cls-1" d="m776.85,1073.13c-13.73-9.9-32.21-15.24-54.93-15.88-17.5-.48-31.8,1.88-43.73,7.24-9.61,4.32-17.73,10.87-23.42,18.62h132.94c-3.21-3.72-6.84-7.09-10.85-9.98Z"/>
          <path class="cls-1" d="m1054.55,1032.63c-1.88,15.17,6.08,26.99,13.48,39.07,2.29,3.75,4.53,7.52,6.41,11.42h5.56v-83c-.84.27-1.67.57-2.49.91-12.69,5.34-21.29,18.1-22.96,31.59Z"/>
          <path class="cls-1" d="m1035.36,934.35c-23.03,19.71-31.02,51.63-19.92,79.88,2.22,5.66,5.59,11.8,11.39,14.46,10.13,4.64,15.44-4.63,15.56-13.63.11-8.66.07-15.98,7.12-21.98,6.38-5.43,14.05-7.58,21.3-11.45,3.01-1.6,6.15-3.43,9.19-5.5v-52.4c-2.05-.87-4.18-1.55-6.33-2-13.86-2.89-27.96,3.76-38.31,12.62Z"/>
          <path class="cls-1" d="m975.44,940.06c1.16,1.16,2.37,2.02,3.61,2.62,11.38,5.54,24.65-10.95,14.49-20.97-11.27-11.12-29.72,6.75-18.1,18.35Z"/>
          <path class="cls-1" d="m986.3,851.87c12.36-2,24.28-10.16,25.72-21.54,2.25-17.86-21.03-35.55-40.27-36.89-15.58-1.08-29.57,11.31-31.17,24.35-2.51,20.43,23.71,37.66,45.73,34.09Z"/>
          <path class="cls-1" d="m73.47,29.11c7.52.21,14.69-6.93,19.18-12.19,3.82-4.47,7.34-9.27,11.15-13.8h-39.74c-.57,1.91-1.15,3.85-1.32,5.91-.66,8.02.38,19.8,10.73,20.08Z"/>
          <path class="cls-1" d="m109.16,21.99c-6.62,10.04-.09,19.33,10.22,21.4,26.05,5.23,55.72-15.75,63.66-40.27h-39.2c-7.63,11.69-26.46,6.42-34.68,18.87Z"/>
          <path class="cls-1" d="m16.22,127.78c2.9,19.41,13.73,50.31,39.61,42.86,13.53-3.9,21.66-19.26,21.24-32.69-.34-10.93-6.27-19.98-9.22-30.12-1.26-4.33-2.11-8.73-2.76-13.16-1.79-12.25-2.01-24.75-5.04-36.75-3.39-13.42-9.45-26.47-19.34-36.16C30.33,11.59,14.56,5.33,0,7.71v87.11c1.23.57,2.44,1.34,3.64,2.36,8.36,7.11,11.04,20.31,12.58,30.61Z"/>
          <path class="cls-1" d="m319.59,1039.62c-4.76-8.21-13.19-14.56-22.64-15.48-17.59-1.72-25.82,15.37-31.5,29.08-4.12,9.95-7.6,20.24-12.35,29.9h68.25c1.89-5.13,3.14-10.5,3.6-15.98.8-9.46-.6-19.31-5.36-27.53Z"/>
          <path class="cls-1" d="m147.41,1064.55c-7.97-2.9-18.37-5.65-26.82-4.38-10.91,1.64-21.67,4.24-32.62,5.73-19.54,2.66-47.36,6.52-65.35-3.11-6.79-3.64-14.59-7.64-22.62-10.18v30.51h172.33c-6.45-8.32-14.97-14.95-24.92-18.57Z"/>
          <path class="cls-1" d="m315.02,430.05c-7.78-2.35-16.85-5.7-25.05-5-16.93,1.43-18.38,19.42-5.66,28.09.2.13.39.26.59.39,7.87,5.01,15.36,10.14,22.98,15.58,8.39,5.99,22.26,14.13,32.47,7.77,9.94-6.2,7.74-17.87,2.56-26.53-6.42-10.73-16.07-16.72-27.88-20.29Z"/>
          <path class="cls-1" d="m0,115.67v44.42c1.85-5.42,2.99-11.11,3.58-16.73.74-7.08.49-19.52-3.58-27.7Z"/>
          <path class="cls-1" d="m9.01,259.52c7.9-8.52,15.81-17.05,23.71-25.57,7.17-7.74,16.92-15.61,22.19-24.76,2.82-4.9,2.43-9.66.07-13.38-2.42-3.83-6.92-6.56-12.13-7.19-11.29-1.37-23.32,1.59-34.48,3.19-2.71.39-5.52.71-8.38,1.01v75.69c3.21-2.88,6.22-5.98,9.01-9Z"/>
          <path class="cls-1" d="m53.31,623.82c9.27-9.31,27.06-27.2,22.05-41.85-3.75-10.95-14.39-7.8-22.31-4.49-15.99,6.67-35.63,10.28-53.05,6.94v72.33c5.14-1.76,10.11-3.78,14.82-5.97,14.27-6.64,27.38-15.79,38.49-26.95Z"/>
          <path class="cls-1" d="m65.09,701.74c5.45-2.15,11.93-4.2,17.75-3.09,7.17,1.36,13.48,5.54,20.61,7.09,9.48,2.06,22.92,2.31,27.7-7.94,3.83-8.22-.84-18.24-5.03-25.37-6.74-11.45-15.76-20.95-28.64-25.32-14.83-5.03-28.74-2.15-41.62,6.08-6.21,3.97-11.88,8.72-17.22,13.78-4.58,4.34-9.13,11.42-14.6,14.5-7.36,4.14-15.75,4.2-24.05,3.06v58.17c10.88-7.08,21.75-14.15,32.63-21.23,10.59-6.89,20.61-15.06,32.46-19.74Z"/>
          <path class="cls-1" d="m105.47,751.38c14.41-4.95,12.37-22.78,2.47-30-3.91-2.85-9.04-4.04-14.87-2.14-7.57,2.47-16.79,13.74-11.73,21.88,4.58,7.37,15.65,13.17,24.13,10.25Z"/>
          <path class="cls-1" d="m52.94,1038.77c7.51,1.91,14.52,5.18,22.24,6.68,8.11,1.57,16.4,2.28,24.66,2.1,6.84-.14,15.52.08,21.4-3.59,14.72-9.19,20.68-28.8,7.77-42.19-7.82-8.11-21.2-10.24-32.01-9.93-10.39.3-21.01.25-30.68-4.07-10.83-4.84-11.99-15.7-13.19-26.46-1.33-11.97-3.74-25.4-15.68-31.31-10.83-5.36-26.29-.68-37.46-4.98v102.55c8.57,7.49,20.08,8.82,32.54,8.9,6.62.04,14.02.67,20.41,2.29Z"/>
          <path class="cls-1" d="m32.7,858.18c-10.9-1.61-24.39,9.54-26.88,19.84-3.65,15.07,7.77,23.05,19.91,23.12,10.86.06,22.3-6.21,24.07-19.4,1.48-10.99-6.51-22-17.09-23.57Z"/>
          <path class="cls-1" d="m7.19,797.09c-1.87-3.43-4.35-6.13-7.19-8.11v38.12c1.19-.78,2.35-1.69,3.47-2.77,7.44-7.21,8.61-18.29,3.72-27.25Z"/>
        </g>
      </g>
      <g>
        <path class="cls-4" d="m660.22,312.38h-240.45v-26.72h240.45v26.72Zm0,40.07h-86.83v247.13h-26.72v-247.13h-13.36v247.13h-26.72v-247.13h-86.83v-26.72h240.45v26.72Z"/>
        <text class="cls-3" transform="translate(296.12 754.88)"><tspan x="0" y="0">TEXAS</tspan></text>
      </g>
    </g>
  </g>
</svg>